HIERARCHY
ROOT Hips
{
	OFFSET 0.00000 0.00000 0.00000
	CHANNELS 6 Xposition Yposition Zposition Zrotation Yrotation Xrotation 
	JOINT LHipJoint
	{
		OFFSET 0 0 0
		CHANNELS 3 Zrotation Yrotation Xrotation
		JOINT LeftUpLeg
		{
			OFFSET 1.65674 -1.80282 0.62477
			CHANNELS 3 Zrotation Yrotation Xrotation
			JOINT LeftLeg
			{
				OFFSET 2.59720 -7.13576 0.00000
				CHANNELS 3 Zrotation Yrotation Xrotation
				JOINT LeftFoot
				{
					OFFSET 2.49236 -6.84770 0.00000
					CHANNELS 3 Zrotation Yrotation Xrotation
					JOINT LeftToeBase
					{
						OFFSET 0.19704 -0.54136 2.14581
						CHANNELS 3 Zrotation Yrotation Xrotation
						End Site
						{
							OFFSET 0.00000 -0.00000 1.11249
						}
					}
				}
			}
		}
	}
	JOINT RHipJoint
	{
		OFFSET 0 0 0
		CHANNELS 3 Zrotation Yrotation Xrotation
		JOINT RightUpLeg
		{
			OFFSET -1.61070 -1.80282 0.62476
			CHANNELS 3 Zrotation Yrotation Xrotation
			JOINT RightLeg
			{
				OFFSET -2.59502 -7.12977 0.00000
				CHANNELS 3 Zrotation Yrotation Xrotation
				JOINT RightFoot
				{
					OFFSET -2.46780 -6.78024 0.00000
					CHANNELS 3 Zrotation Yrotation Xrotation
					JOINT RightToeBase
					{
						OFFSET -0.23024 -0.63258 2.13368
						CHANNELS 3 Zrotation Yrotation Xrotation
						End Site
						{
							OFFSET -0.00000 -0.00000 1.11569
						}
					}
				}
			}
		}
	}
	JOINT LowerBack
	{
		OFFSET 0 0 0
		CHANNELS 3 Zrotation Yrotation Xrotation
		JOINT Spine
		{
			OFFSET 0.01961 2.05450 -0.14112
			CHANNELS 3 Zrotation Yrotation Xrotation
			JOINT Spine1
			{
				OFFSET 0.01021 2.06436 -0.05921
				CHANNELS 3 Zrotation Yrotation Xrotation
				JOINT Neck
				{
					OFFSET 0 0 0
					CHANNELS 3 Zrotation Yrotation Xrotation
					JOINT Neck1
					{
						OFFSET 0.00713 1.56711 0.14968
						CHANNELS 3 Zrotation Yrotation Xrotation
						JOINT Head
						{
							OFFSET 0.03429 1.56041 -0.10006
							CHANNELS 3 Zrotation Yrotation Xrotation
							End Site
							{
								OFFSET 0.01305 1.62560 -0.05265
							}
						}
					}
				}
				JOINT LeftShoulder
				{
					OFFSET 0 0 0
					CHANNELS 3 Zrotation Yrotation Xrotation
					JOINT LeftArm
					{
						OFFSET 3.54205 0.90436 -0.17364
						CHANNELS 3 Zrotation Yrotation Xrotation
						JOINT LeftForeArm
						{
							OFFSET 4.86513 -0.00000 -0.00000
							CHANNELS 3 Zrotation Yrotation Xrotation
							JOINT LeftHand
							{
								OFFSET 3.35554 -0.00000 0.00000
								CHANNELS 3 Zrotation Yrotation Xrotation
								JOINT LeftFingerBase
								{
									OFFSET 0 0 0
									CHANNELS 3 Zrotation Yrotation Xrotation
									JOINT LeftHandIndex1
									{
										OFFSET 0.66117 -0.00000 0.00000
										CHANNELS 3 Zrotation Yrotation Xrotation
										End Site
										{
											OFFSET 0.53306 -0.00000 0.00000
										}
									}
								}
								JOINT LThumb
								{
									OFFSET 0 0 0
									CHANNELS 3 Zrotation Yrotation Xrotation
									End Site
									{
										OFFSET 0.54120 -0.00000 0.54120
									}
								}
							}
						}
					}
				}
				JOINT RightShoulder
				{
					OFFSET 0 0 0
					CHANNELS 3 Zrotation Yrotation Xrotation
					JOINT RightArm
					{
						OFFSET -3.49802 0.75994 -0.32616
						CHANNELS 3 Zrotation Yrotation Xrotation
						JOINT RightForeArm
						{
							OFFSET -5.02649 -0.00000 0.00000
							CHANNELS 3 Zrotation Yrotation Xrotation
							JOINT RightHand
							{
								OFFSET -3.36431 -0.00000 0.00000
								CHANNELS 3 Zrotation Yrotation Xrotation
								JOINT RightFingerBase
								{
									OFFSET 0 0 0
									CHANNELS 3 Zrotation Yrotation Xrotation
									JOINT RightHandIndex1
									{
										OFFSET -0.73041 -0.00000 0.00000
										CHANNELS 3 Zrotation Yrotation Xrotation
										End Site
										{
											OFFSET -0.58887 -0.00000 0.00000
										}
									}
								}
								JOINT RThumb
								{
									OFFSET 0 0 0
									CHANNELS 3 Zrotation Yrotation Xrotation
									End Site
									{
										OFFSET -0.59786 -0.00000 0.59786
									}
								}
							}
						}
					}
				}
			}
		}
	}
}
MOTION
Frames: 7
Frame Time: 0.033333
10.42 16.70 -30.10 0.00 0.00 0.00 0.00 0.00 0.00 -21.00 0.00 0.00 0.00 0.00 0.00 0.00 0.00 0.00 0.00 0.00 0.00 0.00 0.00 0.00 21.00 0.00 0.00 0.00 0.00 0.00 0.00 0.00 0.00 0.00 0.00 0.00 0.00 0.00 0.00 0.00 0.00 0.00 0.00 0.00 0.00 0.00 0.00 -16.00 0.00 0.00 21.00 0.00 0.00 11.00 0.00 0.00 0.00 -8.00 0.00 0.00 0.00 0.00 0.00 0.00 0.00 0.00 0.00 0.00 0.00 0.00 0.00 0.00 0.00 0.00 0.00 0.00 0.00 0.00 8.00 0.00 0.00 0.00 0.00 0.00 0.00 0.00 0.00 0.00 0.00 0.00 0.00 0.00 0.00 0.00 0.00 0.00
10.40 16.67 -29.54 -2.43 -10.19 -2.65 0.00 0.00 0.00 -19.50 -9.51 -26.10 1.51 7.75 21.97 0.22 8.49 -15.59 0.35 -3.79 -10.48 0.00 0.00 0.00 28.01 -4.16 17.87 -0.39 -3.99 11.06 -0.61 6.54 -14.00 -0.00 -0.14 0.37 5.74 1.82 7.19 1.45 2.77 3.82 -1.91 1.45 0.13 1.32 4.13 -12.92 -6.09 5.59 0.71 -1.87 2.56 2.73 0.00 0.00 0.00 -97.17 11.07 -11.79 10.21 -17.07 -1.54 -0.00 0.00 -11.11 23.41 20.07 8.45 -7.12 0.00 -0.00 -5.12 51.62 -0.84 0.00 0.00 0.00 79.40 21.13 39.10 -26.81 37.99 -9.38 0.00 -0.00 -16.08 -27.04 16.65 -8.32 7.12 -0.00 -0.00 0.52 -11.42 0.40
10.35 16.56 -28.75 -2.44 -10.27 -2.36 0.00 0.00 0.00 -20.19 -9.63 -26.18 2.14 9.14 26.25 0.01 9.18 -13.21 0.35 -3.80 -10.53 0.00 0.00 0.00 27.56 -4.68 19.29 -0.55 -4.74 13.17 -0.57 6.74 -13.58 -0.23 3.07 -8.46 4.98 1.79 5.94 1.66 2.61 3.74 -1.21 1.37 0.67 0.87 4.24 -12.66 -4.99 5.68 -0.50 -1.43 2.67 2.21 0.00 0.00 0.00 -97.70 10.67 -11.86 10.22 -17.09 -1.54 -0.00 0.00 -11.13 22.94 20.56 8.45 -7.12 0.00 -0.00 -5.73 52.05 -1.00 0.00 0.00 0.00 79.65 20.82 39.76 -25.58 36.79 -8.64 0.00 -0.00 -16.54 -27.04 16.29 -8.15 7.12 -0.00 -0.00 0.48 -11.82 0.37
10.30 16.52 -27.97 -2.62 -10.06 -2.46 0.00 0.00 0.00 -20.16 -10.07 -26.31 2.98 10.66 31.13 -0.15 10.68 -12.60 0.00 0.37 1.02 0.00 0.00 0.00 27.40 -4.79 19.44 -1.03 -6.45 18.10 -0.37 6.36 -11.01 -0.85 5.89 -16.47 4.96 1.73 5.77 1.37 2.54 3.41 -1.50 1.32 0.44 0.80 4.13 -12.58 -3.67 5.46 -1.53 -1.01 2.62 1.80 -0.00 -0.00 0.00 -96.79 9.79 -12.16 9.67 -16.22 -1.38 -0.00 0.00 -8.89 22.82 20.41 8.35 -7.12 0.00 -0.00 -5.81 51.87 -0.99 -0.00 -0.00 0.00 81.52 19.27 39.27 -23.47 34.60 -7.41 0.00 -0.00 -15.29 -27.50 17.07 -8.69 7.12 -0.00 -0.00 0.26 -10.88 0.20
10.24 16.53 -27.25 -0.62 -9.28 -2.75 0.00 0.00 0.00 -23.04 -9.32 -25.40 3.47 11.42 33.70 0.02 8.21 -12.18 0.08 1.87 5.16 0.00 0.00 0.00 25.00 -3.63 15.40 -2.66 -10.12 29.35 -0.05 6.34 -5.64 -1.71 8.24 -23.44 2.58 1.66 5.65 0.73 2.33 3.11 -0.82 1.19 0.11 -0.68 3.80 -12.40 -1.59 5.15 -2.44 -0.13 2.54 1.34 0.00 -0.00 0.00 -95.91 8.27 -10.81 9.35 -15.72 -1.29 -0.00 0.00 -8.07 22.88 21.18 8.67 -7.12 0.00 -0.00 -5.98 52.69 -1.13 0.00 -0.00 0.00 83.09 17.21 38.03 -21.12 31.97 -6.11 0.00 -0.00 -14.05 -27.54 17.29 -8.81 7.12 -0.00 -0.00 0.25 -10.64 0.20
10.21 16.61 -26.53 -0.83 -9.72 -2.76 0.00 0.00 0.00 -23.47 -8.54 -23.67 3.79 11.87 35.29 0.16 7.35 -13.43 0.19 2.81 7.75 0.00 0.00 0.00 24.58 -1.01 10.84 -4.81 -13.17 40.00 -0.01 3.68 5.60 -2.32 9.51 -27.40 2.93 1.66 5.51 0.56 2.35 2.90 -1.19 1.20 -0.00 -1.05 3.78 -11.66 -1.07 5.14 -3.71 0.05 2.56 0.78 -0.00 -0.00 0.00 -95.12 6.61 -8.69 9.53 -16.00 -1.34 -0.00 0.00 -8.22 22.19 20.76 8.23 -7.12 0.00 -0.00 -6.55 52.13 -1.15 -0.00 -0.00 0.00 84.63 15.53 37.92 -18.36 28.61 -4.72 0.00 -0.00 -13.69 -27.76 17.07 -8.79 7.12 -0.00 -0.00 0.09 -10.84 0.07
10.19 16.68 -25.88 0.42 -9.86 -3.12 0.00 0.00 0.00 -25.63 -7.63 -20.39 3.58 11.57 34.24 0.37 6.41 -15.57 0.20 2.86 7.89 0.00 0.00 0.00 22.82 2.28 5.54 -7.70 -15.89 51.48 -0.65 -1.83 14.70 -3.18 10.98 -32.20 1.72 1.54 5.86 0.23 2.14 2.87 -0.86 1.08 -0.27 -0.70 3.89 -12.14 -1.84 5.25 -3.82 -0.23 2.59 0.85 0.00 0.00 0.00 -94.82 4.60 -4.02 10.45 -17.43 -1.61 -0.00 0.00 -11.14 23.05 20.24 8.37 -7.12 0.00 -0.00 -5.53 51.73 -0.92 0.00 0.00 0.00 85.53 14.00 37.33 -15.61 24.99 -3.48 0.00 -0.00 -11.11 -25.15 17.15 -7.88 7.12 -0.00 -0.00 1.81 -11.16 1.43
